ply
format ascii 1.0
comment VCGLIB generated
element vertex 530
property float x
property float y
property float z
property float nx
property float ny
property float nz
element face 992
property list uchar int vertex_indices
end_header
24.8258 1.62939e-006 17.2701 -2.88912 -2.08616e-007 -0.764319 
24.4169 1.62939e-006 18.8156 -5.55623 -4.47035e-008 1.468 
24.8912 1.62939e-006 19.3307 -0.461333 2.98023e-007 4.99045 
25.8561 1.62939e-006 18.8156 4.04592 -5.96046e-008 4.33811 
26.9191 1.62939e-006 17.2701 5.32373 -8.9407e-008 3.01281 
22.5545 -11.5029 17.2701 -2.66626 1.10435 -0.765363 
22.1773 -11.3425 18.8156 -5.13412 2.12104 1.47108 
22.6149 -11.5286 19.3307 -0.420757 0.178115 4.99546 
23.505 -11.9073 18.8156 3.73391 -1.54426 4.33953 
24.4856 -12.3246 17.2701 4.91408 -2.03346 3.01653 
16.3268 -20.8079 17.2701 -2.04168 2.04167 -0.766982 
16.0365 -20.5176 18.8156 -3.9259 3.9259 1.47074 
16.3732 -20.8543 19.3307 -0.32585 0.32585 4.9977 
17.0583 -21.5394 18.8156 2.8556 -2.8556 4.34492 
17.8131 -22.2941 17.2701 3.76037 -3.76037 3.02147 
7.02187 -27.0356 17.2701 -1.10435 2.66626 -0.765363 
6.8614 -26.6584 18.8156 -2.12104 5.13412 1.47108 
7.04755 -27.0959 19.3307 -0.178116 0.420758 4.99546 
7.42627 -27.986 18.8156 1.54426 -3.73391 4.33953 
7.84351 -28.9667 17.2701 2.03346 -4.91408 3.01653 
-4.48107 -29.3069 17.2701 -0.00852624 2.89203 -0.771857 
-4.48107 -28.898 18.8156 -0.0110488 5.55591 1.46358 
-4.48107 -29.3723 19.3307 -0.0013331 0.462374 4.98978 
-4.48107 -30.3372 18.8156 0.000142023 -4.04601 4.33808 
-4.48107 -31.4002 17.2701 -1.04308e-007 -5.32373 3.01281 
-16.7788 -27.0356 17.2701 1.11454 2.50739 -1.05645 
-16.1588 -26.6584 18.8156 2.17886 5.28141 0.861375 
-16.109 -27.0959 19.3307 0.13254 0.590602 4.78102 
-16.4008 -27.986 18.8156 -1.55014 -3.77344 4.31624 
-16.8057 -28.9667 17.2701 -2.0332 -4.91825 3.012 
-25.9954 -20.8079 17.2701 1.93618 1.82447 -1.19866 
-25.2967 -20.5176 18.8156 4.11784 4.03092 0.425972 
-25.4237 -20.8543 19.3307 0.462966 0.566291 4.58439 
-26.0315 -21.5394 18.8156 -2.8989 -2.90632 4.30536 
-26.7752 -22.2941 17.2701 -3.76415 -3.76563 3.01382 
-31.7816 -11.5029 17.2701 2.61087 1.00488 -0.987669 
-31.2512 -11.3425 18.8156 5.26489 2.07486 0.959184 
-31.6101 -11.5286 19.3307 0.549809 0.232683 4.80362 
-32.4713 -11.9073 18.8156 -3.76584 -1.5552 4.32024 
-33.4478 -12.3246 17.2701 -4.91732 -2.03453 3.01252 
-33.7879 1.62939e-006 17.2701 2.90007 -0.0313608 -0.767217 
-33.3791 1.62939e-006 18.8156 5.55319 -0.0465132 1.45202 
-33.8533 1.62939e-006 19.3307 0.468011 -0.00641496 4.98702 
-34.8183 1.62939e-006 18.8156 -4.04703 0.00203811 4.33791 
-35.8813 1.62939e-006 17.2701 -5.32393 0.000331879 3.01262 
-31.5166 11.5029 17.2701 2.66626 -1.10435 -0.765363 
-31.1395 11.3425 18.8156 5.13412 -2.12104 1.47108 
-31.577 11.5286 19.3307 0.420757 -0.178115 4.99546 
-32.4671 11.9073 18.8156 -3.73391 1.54426 4.33953 
-33.4478 12.3246 17.2701 -4.91408 2.03346 3.01653 
-25.2889 20.8079 17.2701 2.04168 -2.04168 -0.766982 
-24.9987 20.5176 18.8156 3.9259 -3.9259 1.47073 
-25.3354 20.8543 19.3307 0.325851 -0.325851 4.9977 
-26.0205 21.5394 18.8156 -2.8556 2.8556 4.34492 
-26.7752 22.2941 17.2701 -3.76037 3.76037 3.02147 
-15.984 27.0356 17.2701 1.10435 -2.66626 -0.765363 
-15.8235 26.6584 18.8156 2.12104 -5.13412 1.47108 
-16.0097 27.0959 19.3307 0.178114 -0.420757 4.99546 
-16.3884 27.986 18.8156 -1.54426 3.73391 4.33953 
-16.8057 28.9667 17.2701 -2.03346 4.91408 3.01653 
-4.48107 29.3069 17.2701 2.08616e-007 -2.88912 -0.764319 
-4.48107 28.898 18.8156 7.45058e-008 -5.55623 1.468 
-4.48107 29.3723 19.3307 -2.98023e-007 -0.461333 4.99045 
-4.48107 30.3372 18.8156 7.45058e-008 4.04592 4.33811 
-4.48107 31.4002 17.2701 4.47035e-008 5.32373 3.01281 
7.02187 27.0356 17.2701 -1.10435 -2.66626 -0.765364 
6.8614 26.6584 18.8156 -2.12104 -5.13412 1.47107 
7.04755 27.0959 19.3307 -0.178115 -0.420757 4.99546 
7.42627 27.986 18.8156 1.54426 3.73391 4.33953 
7.84351 28.9667 17.2701 2.03346 4.91408 3.01653 
16.3268 20.8079 17.2701 -2.04167 -2.04168 -0.766981 
16.0365 20.5176 18.8156 -3.9259 -3.9259 1.47074 
16.3732 20.8543 19.3307 -0.32585 -0.325849 4.9977 
17.0583 21.5394 18.8156 2.8556 2.8556 4.34492 
17.8131 22.2941 17.2701 3.76037 3.76037 3.02147 
22.5545 11.5029 17.2701 -2.66626 -1.10435 -0.765363 
22.1773 11.3425 18.8156 -5.13413 -2.12104 1.47108 
22.6149 11.5286 19.3307 -0.420759 -0.178116 4.99546 
23.505 11.9073 18.8156 3.73391 1.54426 4.33953 
24.4856 12.3246 17.2701 4.91408 2.03346 3.01653 
30.7624 1.62939e-006 9.05209 5.64413 2.08616e-007 2.48332 
34.115 1.62939e-006 0.981258 5.77807 1.49012e-007 2.06231 
36.4864 1.62939e-006 -6.7952 5.95247 0 1.24891 
37.3859 1.62939e-006 -14.1301 5.90427 -1.49012e-007 -0.391958 
28.031 -13.8331 9.05209 5.21092 -2.15623 2.48728 
31.1238 -15.149 0.981258 5.33473 -2.20777 2.06559 
33.3114 -16.0797 -6.7952 5.49584 -2.27494 1.25083 
34.1412 -16.4328 -14.1301 5.45 -2.25685 -0.392366 
20.5418 -25.0229 9.05209 3.98797 -3.98797 2.49152 
22.9222 -27.4032 0.981258 4.08329 -4.08329 2.06939 
24.6058 -29.0869 -6.7952 4.20743 -4.20743 1.25337 
25.2445 -29.7255 -14.1301 4.17309 -4.17309 -0.393209 
9.35199 -32.5121 9.05209 2.15623 -5.21092 2.48728 
10.6679 -35.6049 0.981258 2.20777 -5.33473 2.06559 
11.5987 -37.7925 -6.7952 2.27494 -5.49584 1.25083 
11.9517 -38.6223 -14.1301 2.25686 -5.45 -0.392367 
-4.48107 -35.2435 9.05209 2.08616e-007 -5.64413 2.48332 
-4.48107 -38.5961 0.981258 1.04308e-007 -5.77807 2.06231 
-4.48107 -40.9675 -6.7952 0 -5.95247 1.24891 
-4.48107 -41.8669 -14.1301 -1.49012e-007 -5.90427 -0.391958 
-18.3141 -32.5121 9.05209 -2.15623 -5.21092 2.48728 
-19.63 -35.6049 0.981258 -2.20777 -5.33473 2.06559 
-20.5608 -37.7925 -6.7952 -2.27494 -5.49584 1.25083 
-20.9138 -38.6223 -14.1301 -2.25685 -5.45 -0.392367 
-29.5039 -25.0229 9.05209 -3.98797 -3.98797 2.49152 
-31.8843 -27.4032 0.981258 -4.08329 -4.08329 2.06939 
-33.568 -29.0869 -6.7952 -4.20743 -4.20743 1.25337 
-34.2066 -29.7255 -14.1301 -4.17309 -4.17309 -0.393209 
-36.9932 -13.8331 9.05209 -5.21092 -2.15623 2.48728 
-40.086 -15.149 0.981258 -5.33474 -2.20777 2.06559 
-42.2736 -16.0797 -6.7952 -5.49584 -2.27494 1.25083 
-43.1033 -16.4328 -14.1301 -5.45 -2.25685 -0.392367 
-39.7245 1.62939e-006 9.05209 -5.64413 -1.78814e-007 2.48332 
-43.0772 1.62939e-006 0.981258 -5.77807 -1.04308e-007 2.06231 
-45.4485 1.62939e-006 -6.7952 -5.95247 0 1.24891 
-46.348 1.62939e-006 -14.1301 -5.90427 1.49012e-007 -0.391958 
-36.9932 13.8331 9.05209 -5.21092 2.15623 2.48728 
-40.086 15.149 0.981258 -5.33473 2.20777 2.06559 
-42.2736 16.0797 -6.7952 -5.49584 2.27494 1.25083 
-43.1033 16.4328 -14.1301 -5.45 2.25685 -0.392366 
-29.5039 25.0229 9.05209 -3.98797 3.98797 2.49152 
-31.8843 27.4032 0.981258 -4.08329 4.08329 2.06939 
-33.568 29.0869 -6.7952 -4.20743 4.20743 1.25337 
-34.2066 29.7255 -14.1301 -4.17309 4.17309 -0.393209 
-18.3141 32.5121 9.05209 -2.15623 5.21092 2.48728 
-19.63 35.6049 0.981258 -2.20777 5.33474 2.06559 
-20.5608 37.7925 -6.7952 -2.27494 5.49584 1.25083 
-20.9138 38.6223 -14.1301 -2.25685 5.45 -0.392367 
-4.48107 35.2435 9.05209 -2.08616e-007 5.64413 2.48332 
-4.48107 38.5961 0.981258 -1.04308e-007 5.77807 2.06231 
-4.48107 40.9675 -6.7952 0 5.95247 1.24891 
-4.48107 41.8669 -14.1301 1.49012e-007 5.90427 -0.391958 
9.35199 32.5121 9.05209 2.15623 5.21092 2.48728 
10.6679 35.6049 0.981258 2.20777 5.33473 2.06559 
11.5987 37.7925 -6.7952 2.27494 5.49584 1.25083 
11.9517 38.6223 -14.1301 2.25685 5.45 -0.392366 
20.5418 25.0229 9.05209 3.98797 3.98797 2.49152 
22.9222 27.4032 0.981258 4.08329 4.08329 2.06939 
24.6058 29.0869 -6.7952 4.20743 4.20743 1.25337 
25.2445 29.7255 -14.1301 4.17309 4.17309 -0.393208 
28.031 13.8331 9.05209 5.21092 2.15623 2.48728 
31.1238 15.149 0.981258 5.33474 2.20777 2.06559 
33.3114 16.0797 -6.7952 5.49584 2.27494 1.25083 
34.1412 16.4328 -14.1301 5.45 2.25685 -0.392367 
35.7504 1.62939e-006 -20.3365 5.33411 -2.5332e-007 -2.58068 
32.1525 1.62939e-006 -24.9239 4.47772 -4.47035e-008 -4.19696 
28.5546 1.62939e-006 -28.0394 4.33443 7.45058e-008 -4.49727 
26.9191 1.62939e-006 -29.8302 4.95257 2.98023e-008 -3.79254 
32.6325 -15.7909 -20.3365 4.92304 -2.03792 -2.58268 
29.3134 -14.3787 -24.9239 4.13199 -1.70917 -4.20041 
25.9943 -12.9665 -28.0394 3.99931 -1.65414 -4.50219 
24.4856 -12.3246 -29.8302 4.57123 -1.89078 -3.79816 
24.0833 -28.5644 -20.3365 3.76813 -3.76813 -2.58741 
21.5288 -26.0098 -24.9239 3.16027 -3.16027 -4.20552 
18.9742 -23.4553 -28.0394 3.05832 -3.05832 -4.50609 
17.8131 -22.2941 -29.8302 3.49659 -3.49659 -3.80223 
11.3098 -37.1136 -20.3365 2.03792 -4.92304 -2.58268 
9.89761 -33.7945 -24.9239 1.70917 -4.13199 -4.20041 
8.48542 -30.4754 -28.0394 1.65414 -3.9993 -4.50219 
7.84351 -28.9667 -29.8302 1.89078 -4.57123 -3.79816 
-4.48107 -40.2315 -20.3365 -2.08616e-007 -5.33411 -2.58068 
-4.48107 -36.6336 -24.9239 -1.3411e-007 -4.47772 -4.19696 
-4.48107 -33.0356 -28.0394 7.45058e-008 -4.33443 -4.49727 
-4.48107 -31.4002 -29.8302 1.93715e-007 -4.95257 -3.79254 
-20.2719 -37.1136 -20.3365 -2.03792 -4.92304 -2.58268 
-18.8597 -33.7945 -24.9239 -1.70917 -4.13198 -4.20041 
-17.4476 -30.4754 -28.0394 -1.65414 -3.9993 -4.50219 
-16.8057 -28.9667 -29.8302 -1.89078 -4.57123 -3.79816 
-33.0454 -28.5644 -20.3365 -3.76813 -3.76813 -2.58741 
-30.4909 -26.0098 -24.9239 -3.16027 -3.16027 -4.20552 
-27.9364 -23.4553 -28.0394 -3.05832 -3.05832 -4.50609 
-26.7752 -22.2941 -29.8302 -3.49659 -3.49659 -3.80223 
-41.5946 -15.7909 -20.3365 -4.92304 -2.03792 -2.58268 
-38.2755 -14.3787 -24.9239 -4.13199 -1.70917 -4.20041 
-34.9564 -12.9665 -28.0394 -3.9993 -1.65414 -4.50219 
-33.4478 -12.3246 -29.8302 -4.57123 -1.89078 -3.79816 
-44.7126 1.62939e-006 -20.3365 -5.33411 2.08616e-007 -2.58068 
-41.1146 1.62939e-006 -24.9239 -4.47772 5.96046e-008 -4.19696 
-37.5167 1.62939e-006 -28.0394 -4.33443 -5.96046e-008 -4.49727 
-35.8813 1.62939e-006 -29.8302 -4.95257 -2.98023e-008 -3.79254 
-41.5946 15.7909 -20.3365 -4.92304 2.03792 -2.58268 
-38.2755 14.3787 -24.9239 -4.13199 1.70917 -4.20041 
-34.9564 12.9665 -28.0394 -3.99931 1.65414 -4.50219 
-33.4478 12.3246 -29.8302 -4.57123 1.89078 -3.79816 
-33.0454 28.5644 -20.3365 -3.76813 3.76813 -2.58741 
-30.4909 26.0098 -24.9239 -3.16027 3.16027 -4.20552 
-27.9364 23.4553 -28.0394 -3.05832 3.05832 -4.50609 
-26.7752 22.2941 -29.8302 -3.49659 3.49659 -3.80223 
-20.2719 37.1136 -20.3365 -2.03792 4.92304 -2.58268 
-18.8597 33.7945 -24.9239 -1.70917 4.13199 -4.20041 
-17.4476 30.4754 -28.0394 -1.65414 3.99931 -4.50219 
-16.8057 28.9667 -29.8302 -1.89078 4.57123 -3.79816 
-4.48107 40.2315 -20.3365 2.08616e-007 5.33411 -2.58068 
-4.48107 36.6336 -24.9239 -1.49012e-008 4.47772 -4.19696 
-4.48107 33.0356 -28.0394 -1.49012e-007 4.33443 -4.49727 
-4.48107 31.4002 -29.8302 1.63913e-007 4.95257 -3.79254 
11.3098 37.1136 -20.3365 2.03792 4.92304 -2.58268 
9.89761 33.7945 -24.9239 1.70917 4.13199 -4.20041 
8.48542 30.4754 -28.0394 1.65414 3.99931 -4.50219 
7.84351 28.9667 -29.8302 1.89078 4.57123 -3.79816 
24.0833 28.5644 -20.3365 3.76813 3.76813 -2.58741 
21.5288 26.0098 -24.9239 3.16027 3.16027 -4.20552 
18.9742 23.4553 -28.0394 3.05832 3.05832 -4.50609 
17.8131 22.2941 -29.8302 3.49659 3.49659 -3.80223 
32.6325 15.7909 -20.3365 4.92304 2.03792 -2.58268 
29.3134 14.3787 -24.9239 4.13199 1.70917 -4.20041 
25.9943 12.9665 -28.0394 3.9993 1.65414 -4.50219 
24.4856 12.3246 -29.8302 4.57123 1.89078 -3.79816 
26.2077 1.62939e-006 -30.9832 3.5138 1.56462e-007 -4.40189 
22.4054 1.62939e-006 -31.989 1.1064 3.72529e-009 -6.14172 
13.0098 1.62939e-006 -32.7004 0.308967 -4.19095e-009 -6.2713 
-4.48107 1.62939e-006 -32.9702 2.32831e-009 -1.39698e-009 -6.28166 
23.8293 -12.0454 -30.9832 3.2442 -1.34117 -4.40158 
20.3217 -10.5529 -31.989 1.02112 -0.421403 -6.14195 
11.6543 -6.86518 -32.7004 0.285198 -0.117639 -6.27132 
17.308 -21.789 -30.9832 2.48088 -2.48088 -4.407 
14.6083 -19.0894 -31.989 0.779495 -0.779495 -6.1427 
7.93747 -12.4185 -32.7004 0.217641 -0.217641 -6.27138 
7.56428 -28.3104 -30.9832 1.34117 -3.24421 -4.40158 
6.07185 -24.8027 -31.989 0.421404 -1.02112 -6.14195 
2.38411 -16.1353 -32.7004 0.117639 -0.285198 -6.27132 
-4.48107 -30.6888 -30.9832 1.30385e-007 -3.5138 -4.40189 
-4.48107 -26.8864 -31.989 6.51926e-009 -1.1064 -6.14172 
-4.48107 -17.4909 -32.7004 -6.0536e-009 -0.308967 -6.2713 
-16.5264 -28.3104 -30.9832 -1.34117 -3.2442 -4.40158 
-15.034 -24.8027 -31.989 -0.421403 -1.02112 -6.14195 
-11.3462 -16.1353 -32.7004 -0.117639 -0.285198 -6.27132 
-26.2701 -21.789 -30.9832 -2.48088 -2.48088 -4.407 
-23.5704 -19.0894 -31.989 -0.779496 -0.779496 -6.1427 
-16.8996 -12.4185 -32.7004 -0.217641 -0.217641 -6.27138 
-32.7915 -12.0454 -30.9832 -3.24421 -1.34117 -4.40158 
-29.2838 -10.5529 -31.989 -1.02112 -0.421403 -6.14195 
-20.6164 -6.86518 -32.7004 -0.285198 -0.117639 -6.27132 
-35.1699 1.62939e-006 -30.9832 -3.5138 -1.19209e-007 -4.40189 
-31.3675 1.62939e-006 -31.989 -1.1064 1.86265e-009 -6.14172 
-21.972 1.62939e-006 -32.7004 -0.308967 6.0536e-009 -6.2713 
-32.7915 12.0454 -30.9832 -3.2442 1.34117 -4.40158 
-29.2838 10.5529 -31.989 -1.02112 0.421403 -6.14195 
-20.6164 6.86518 -32.7004 -0.285198 0.117639 -6.27132 
-26.2701 21.789 -30.9832 -2.48088 2.48088 -4.407 
-23.5704 19.0894 -31.989 -0.779495 0.779496 -6.1427 
-16.8996 12.4185 -32.7004 -0.217641 0.217641 -6.27138 
-16.5264 28.3104 -30.9832 -1.34117 3.24421 -4.40158 
-15.034 24.8027 -31.989 -0.421403 1.02112 -6.14195 
-11.3462 16.1354 -32.7004 -0.117639 0.285198 -6.27132 
-4.48107 30.6888 -30.9832 -1.30385e-007 3.5138 -4.40189 
-4.48107 26.8864 -31.989 -6.51926e-009 1.1064 -6.14172 
-4.48107 17.4909 -32.7004 6.0536e-009 0.308967 -6.2713 
7.56428 28.3104 -30.9832 1.34117 3.2442 -4.40158 
6.07185 24.8027 -31.989 0.421403 1.02112 -6.14195 
2.38411 16.1354 -32.7004 0.117639 0.285198 -6.27132 
17.308 21.789 -30.9832 2.48088 2.48088 -4.407 
14.6083 19.0894 -31.989 0.779496 0.779495 -6.1427 
7.93747 12.4185 -32.7004 0.217641 0.217641 -6.27138 
23.8293 12.0454 -30.9832 3.24421 1.34117 -4.40158 
20.3217 10.5529 -31.989 1.02112 0.421403 -6.14195 
11.6543 6.86518 -32.7004 0.285198 0.117639 -6.27132 
-37.9746 1.62939e-006 9.42006 0.0253528 0.000702649 -3.25606 
-47.7545 1.62939e-006 9.34647 0.241664 0.00610456 -6.16988 
-54.9831 1.62939e-006 8.83131 1.1129 0.0270839 -6.09882 
-59.4641 1.62939e-006 7.43302 3.68286 0.0629131 -4.75504 
-61.0014 1.62939e-006 4.71003 5.96294 0.0403289 -1.00198 
-37.6475 -3.53252 10.156 0.0223705 -1.85261 -2.58221 
-48.0458 -3.53252 10.0709 0.213211 -3.22002 -4.9412 
-55.6781 -3.53252 9.47526 0.968128 -3.36805 -4.84779 
-60.379 -3.53252 7.85849 2.89609 -3.85901 -3.57324 
-61.9827 -3.53252 4.71003 4.42676 -3.9802 -0.686698 
-36.928 -4.71003 11.7751 -0.00490606 -2.53643 0.416723 
-48.6867 -4.71003 11.6647 0.0140383 -5.0827 0.0869605 
-57.2073 -4.71003 10.8919 0.054515 -5.16156 0.3799 
-62.3916 -4.71003 8.79451 -0.354654 -5.31278 0.698503 
-64.1415 -4.71003 4.71003 -0.51744 -5.45458 0.0909333 
-36.2084 -3.53252 13.3941 -0.0247818 -1.32027 2.34682 
-49.3276 -3.53252 13.2585 -0.282039 -3.13021 4.87764 
-58.7364 -3.53252 12.3086 -1.24523 -3.08236 4.47728 
-64.4042 -3.53252 9.73054 -3.01996 -2.91245 2.83566 
-66.3002 -3.53252 4.71003 -4.28575 -3.15616 0.364034 
-35.8813 1.62939e-006 14.1301 -0.0305727 -0.000298943 2.89477 
-49.6189 1.62939e-006 13.9829 -0.359045 -0.00433393 6.09579 
-59.4314 1.62939e-006 12.9526 -1.65593 -0.0192822 5.66186 
-65.319 1.62939e-006 10.156 -3.95125 -0.022495 3.48755 
-67.2815 1.62939e-006 4.71003 -5.55889 -0.0114777 0.405285 
-36.2084 3.53252 13.3941 -0.0236776 1.32049 2.34699 
-49.3276 3.53252 13.2585 -0.270016 3.12888 4.88522 
-58.7364 3.53252 12.3086 -1.2216 3.0786 4.52297 
-64.4042 3.53252 9.73054 -3.05073 2.93239 2.8604 
-66.3002 3.53252 4.71003 -4.30444 3.16565 0.336821 
-36.928 4.71003 11.7751 -0.0046416 2.53677 0.415643 
-48.6867 4.71003 11.6647 0.010317 5.07918 0.0739327 
-57.2073 4.71003 10.8919 0.0475352 5.14894 0.309869 
-62.3916 4.71003 8.79451 -0.319563 5.34127 0.61326 
-64.1415 4.71003 4.71003 -0.476711 5.46467 0.0674235 
-37.6475 3.53252 10.156 0.0203925 1.8528 -2.58136 
-48.0458 3.53252 10.0709 0.199234 3.21629 -4.93916 
-55.6781 3.53252 9.47526 0.937373 3.35416 -4.84429 
-60.379 3.53252 7.85849 2.90469 3.87683 -3.53406 
-61.9827 3.53252 4.71003 4.41991 3.98512 -0.606093 
-60.1837 1.62939e-006 0.441566 5.8156 0.0206271 1.98244 
-57.5998 1.62939e-006 -4.71003 5.09513 0.0459769 3.47892 
-53.0533 1.62939e-006 -9.86163 4.03221 0.0430311 4.71384 
-46.348 1.62939e-006 -14.1301 1.8733 0.0184558 2.97818 
-61.0756 -3.53252 0.0295143 4.29832 -3.77557 1.53633 
-58.2335 -3.53252 -5.33865 3.83832 -3.61118 2.74522 
-53.2756 -3.53252 -10.6378 3.1844 -3.34613 3.81362 
-46.0209 -3.53252 -15.1114 1.47345 -2.06487 2.36367 
-63.0376 -4.71003 -0.876999 -0.272388 -5.48804 -0.108572 
-59.6277 -4.71003 -6.72161 -0.202985 -5.36034 -0.191219 
-53.7647 -4.71003 -12.3454 -0.194076 -5.11181 -0.186901 
-45.3013 -4.71003 -17.2701 -0.444975 -2.47591 -0.785165 
-64.9996 -3.53252 -1.78351 -4.09812 -3.30968 -1.65155 
-61.0219 -3.53252 -8.10457 -3.46613 -3.24181 -2.96156 
-54.2538 -3.53252 -14.053 -2.75462 -3.09704 -3.90526 
-44.5818 -3.53252 -19.4289 -1.10721 -1.02736 -1.97515 
-65.8914 1.62939e-006 -2.19556 -5.34575 -0.0115159 -2.17091 
-61.6556 1.62939e-006 -8.73318 -4.44551 -0.0254567 -3.87374 
-54.4761 1.62939e-006 -14.8292 -3.41057 -0.0208474 -4.96473 
-44.2547 1.62939e-006 -20.4101 -1.28809 -0.00494713 -2.34271 
-64.9996 3.53252 -1.78351 -4.12265 3.31604 -1.62999 
-61.0219 3.53252 -8.10457 -3.49975 3.25337 -2.97173 
-54.2538 3.53252 -14.053 -2.75267 3.1054 -3.93784 
-44.5818 3.53252 -19.4289 -1.09083 1.03527 -1.98475 
-63.0376 4.71003 -0.876999 -0.243642 5.48897 -0.0937265 
-59.6277 4.71003 -6.72161 -0.140498 5.36334 -0.15118 
-53.7647 4.71003 -12.3454 -0.129675 5.12307 -0.145252 
-45.3013 4.71003 -17.2701 -0.416288 2.49581 -0.764978 
-61.0756 3.53252 0.0295143 4.30615 3.76746 1.49252 
-58.2335 3.53252 -5.33865 3.82873 3.59915 2.72027 
-53.2756 3.53252 -10.6378 3.11979 3.35348 3.82167 
-46.0209 3.53252 -15.1114 1.41468 2.08649 2.35628 
31.1058 1.62939e-006 -3.14002 -0.720478 0.0203647 3.03748 
41.1474 1.62939e-006 -0.834068 -3.32204 0.00914496 5.05845 
45.4976 1.62939e-006 4.71003 -5.38892 -0.0608811 2.97121 
47.8853 1.62939e-006 11.4316 -5.02425 -0.109309 2.74297 
52.0393 1.62939e-006 17.2701 -3.70803 -0.130474 3.8212 
31.1058 -7.77155 -5.83848 -0.458726 -2.131 2.06205 
41.914 -7.01721 -2.83491 -1.88804 -4.18546 3.80177 
46.4789 -5.35766 3.54479 -3.51846 -3.77756 2.75973 
49.0812 -3.69811 11.01 -3.54883 -3.51485 2.48958 
54.0018 -2.94377 17.2701 -2.40011 -3.69045 3.31038 
31.1058 -10.3621 -11.7751 0.311762 -2.77821 -0.23869 
43.6005 -9.35628 -7.23677 1.20785 -5.27214 0.0353747 
48.6376 -7.14355 0.981258 1.0473 -5.34105 0.853747 
51.7122 -4.93081 10.0824 0.0306786 -5.71488 1.10286 
58.3193 -3.92502 17.2701 -0.0681891 -5.62272 1.4314 
31.1058 -7.77155 -17.7117 0.911731 -1.5891 -1.91621 
45.287 -7.01721 -11.6386 2.97455 -3.07399 -2.94944 
50.7964 -5.35766 -1.58228 4.55129 -3.23969 -1.48231 
54.3432 -3.69811 9.15482 3.85087 -4.15463 -1.82323 
62.6369 -2.94377 17.2701 2.51149 -4.42683 -2.93337 
31.1058 1.62939e-006 -20.4101 1.12494 -0.00351626 -2.49576 
46.0536 1.62939e-006 -13.6395 3.62794 0.00485729 -4.00323 
51.7776 1.62939e-006 -2.74752 5.52109 0.0434282 -2.31771 
55.5391 1.62939e-006 8.73318 5.15095 0.0842615 -3.23295 
64.5994 1.62939e-006 17.2701 3.24145 0.0635382 -5.10603 
31.1058 7.77155 -17.7117 0.9052 1.59432 -1.91771 
45.287 7.01721 -11.6386 2.99612 3.06433 -2.90538 
50.7964 5.35766 -1.58228 4.4864 3.23842 -1.43486 
54.3432 3.69811 9.15482 3.79977 4.16224 -1.78705 
62.6369 2.94377 17.2701 2.425 4.39197 -2.89688 
31.1058 10.3621 -11.7751 0.324303 2.77271 -0.221621 
43.6005 9.35628 -7.23677 1.24664 5.20716 0.0672822 
48.6376 7.14355 0.981258 1.12349 5.25308 0.835033 
51.7122 4.93082 10.0824 0.142167 5.72494 0.936827 
58.3193 3.92503 17.2701 0.0194867 5.63179 1.21638 
31.1058 7.77155 -5.83848 -0.402316 2.12786 2.05014 
41.914 7.01721 -2.83491 -1.90115 4.19488 3.76657 
46.4789 5.35766 3.54479 -3.54648 3.81663 2.70987 
49.0812 3.69811 11.01 -3.58183 3.62863 2.47836 
54.0018 2.94377 17.2701 -2.37895 3.73825 3.43524 
53.5439 1.62939e-006 18.1532 -2.47744 -0.0628674 5.26414 
54.656 1.62939e-006 18.4476 0.125249 -0.00922459 5.68007 
54.9831 1.62939e-006 18.1532 4.9138 -0.0568067 0.1272 
54.1326 1.62939e-006 17.2701 1.42639 -0.0194418 -1.41628 
55.6457 -2.75978 18.1964 -1.47154 -3.12901 4.48465 
56.6287 -2.35501 18.5166 0.0520983 0.118382 5.46016 
56.6581 -1.95025 18.2136 2.33061 4.82469 1.8917 
55.441 -1.76626 17.2701 1.42483 1.67604 -1.4435 
60.2696 -3.67971 18.2912 0.234189 -4.49646 2.30201 
60.9687 -3.14002 18.6684 -0.056369 -0.785245 5.21457 
60.3432 -2.60033 18.3464 -0.271978 4.46875 4.18575 
58.3193 -2.35501 17.2701 0.380745 3.0763 0.0286197 
64.8935 -2.75978 18.3861 1.8975 -3.37678 -0.710583 
65.3088 -2.35501 18.8202 1.55869 -1.71157 2.52238 
64.0283 -1.95025 18.4792 -1.37535 2.2343 5.65745 
61.1977 -1.76626 17.2701 -0.82968 2.51731 2.31141 
66.9953 1.62939e-006 18.4292 3.54269 0.0758301 -3.33443 
67.2815 1.62939e-006 18.8892 1.33274 0.0250109 0.686985 
65.7033 1.62939e-006 18.5396 -1.61583 -0.00496977 5.99859 
62.506 1.62939e-006 17.2701 -1.54453 0.0183613 3.85861 
64.8935 2.75979 18.3861 1.83008 3.2734 -0.679808 
65.3088 2.35502 18.8202 1.58645 1.61845 2.32979 
64.0283 1.95025 18.4792 -1.38441 -2.25674 5.64602 
61.1977 1.76626 17.2701 -0.829556 -2.50369 2.33702 
60.2696 3.67971 18.2912 0.291052 4.44706 2.16951 
60.9687 3.14002 18.6684 0.00691541 0.855385 5.1451 
60.3432 2.60033 18.3464 -0.270568 -4.47168 4.17383 
58.3193 2.35502 17.2701 0.427685 -3.04963 -0.105346 
55.6457 2.75979 18.1964 -1.47581 3.10896 4.54451 
56.6287 2.35502 18.5166 0.066852 -0.105083 5.447 
56.6581 1.95025 18.2136 2.27622 -4.8288 2.02646 
55.441 1.76626 17.2701 1.40165 -1.59244 -1.51595 
-4.48107 1.62939e-006 32.9702 2.6077e-008 4.28408e-008 6.15212 
2.64939 1.62939e-006 31.9399 3.40361 -7.1615e-005 2.33558 
2.32231 1.62939e-006 29.4377 5.26447 -0.000192702 -2.27898 
-0.359794 1.62939e-006 26.3467 5.62692 -0.000678927 -2.12943 
-0.294375 1.62939e-006 23.5502 4.22226 -0.000406869 3.37955 
2.09927 -2.80616 31.9399 3.14046 -1.29641 2.32675 
1.79725 -2.67695 29.4377 4.85723 -2.00499 -2.27973 
-0.678365 -1.62008 26.3467 5.19912 -2.14454 -2.13743 
-0.618845 -1.64328 23.5502 3.89985 -1.61152 3.38401 
0.588182 -5.06925 31.9399 2.40238 -2.4023 2.32746 
0.355216 -4.83628 29.4377 3.71521 -3.715 -2.28432 
-1.55276 -2.92831 26.3467 3.97533 -3.97459 -2.1408 
-1.50852 -2.97255 23.5502 2.98309 -2.98264 3.38 
-1.67491 -6.58033 31.9399 1.29644 -3.1405 2.32687 
-1.80412 -6.27832 29.4377 2.00511 -4.85742 -2.27967 
-2.86099 -3.8027 26.3467 2.14463 -5.19894 -2.13696 
-2.83779 -3.86222 23.5502 1.61167 -3.89996 3.38316 
-4.48107 -7.13046 31.9399 -7.10189e-005 -3.40361 2.33558 
-4.48107 -6.80338 29.4377 -0.000191934 -5.26447 -2.27898 
-4.48107 -4.12128 26.3467 -0.000678688 -5.62692 -2.12943 
-4.48107 -4.18669 23.5502 -0.000406243 -4.22226 3.37954 
-7.28723 -6.58033 31.9399 -1.29641 -3.14046 2.32675 
-7.15802 -6.27832 29.4377 -2.00499 -4.85723 -2.27973 
-6.10116 -3.8027 26.3467 -2.14454 -5.19912 -2.13743 
-6.12435 -3.86222 23.5502 -1.61152 -3.89985 3.38401 
-9.55032 -5.06925 31.9399 -2.4023 -2.40238 2.32746 
-9.31736 -4.83628 29.4377 -3.715 -3.71521 -2.28432 
-7.40939 -2.92831 26.3467 -3.97459 -3.97533 -2.1408 
-7.45362 -2.97255 23.5502 -2.98264 -2.98309 3.38 
-11.0614 -2.80616 31.9399 -3.14049 -1.29644 2.32687 
-10.7594 -2.67695 29.4377 -4.85742 -2.00511 -2.27967 
-8.28378 -1.62008 26.3467 -5.19894 -2.14463 -2.13696 
-8.3433 -1.64328 23.5502 -3.89996 -1.61167 3.38316 
-11.6115 1.62939e-006 31.9399 -3.40361 7.15554e-005 2.33558 
-11.2844 1.62939e-006 29.4377 -5.26447 0.000192292 -2.27898 
-8.60235 1.62939e-006 26.3467 -5.62692 0.00067883 -2.12943 
-8.66777 1.62939e-006 23.5502 -4.22226 0.000406727 3.37955 
-11.0614 2.80616 31.9399 -3.14046 1.29641 2.32675 
-10.7594 2.67695 29.4377 -4.85723 2.00499 -2.27973 
-8.28378 1.62009 26.3467 -5.19912 2.14454 -2.13743 
-8.3433 1.64328 23.5502 -3.89985 1.61152 3.38401 
-9.55032 5.06925 31.9399 -2.40238 2.4023 2.32746 
-9.31736 4.83629 29.4377 -3.71521 3.715 -2.28432 
-7.40939 2.92832 26.3467 -3.97533 3.97459 -2.1408 
-7.45362 2.97255 23.5502 -2.98309 2.98264 3.38 
-7.28723 6.58034 31.9399 -1.29644 3.14049 2.32687 
-7.15802 6.27833 29.4377 -2.00512 4.85742 -2.27967 
-6.10116 3.80271 26.3467 -2.14463 5.19894 -2.13696 
-6.12435 3.86223 23.5502 -1.61167 3.89996 3.38316 
-4.48107 7.13047 31.9399 7.1615e-005 3.40361 2.33558 
-4.48107 6.80338 29.4377 0.000192694 5.26447 -2.27898 
-4.48107 4.12128 26.3467 0.000678867 5.62692 -2.12943 
-4.48107 4.1867 23.5502 0.000406828 4.22226 3.37954 
-1.67491 6.58034 31.9399 1.29641 3.14046 2.32675 
-1.80412 6.27833 29.4377 2.00499 4.85723 -2.27973 
-2.86099 3.80271 26.3467 2.14454 5.19912 -2.13743 
-2.83779 3.86223 23.5502 1.61152 3.89985 3.38401 
0.588182 5.06925 31.9399 2.4023 2.40238 2.32746 
0.355216 4.83629 29.4377 3.715 3.71521 -2.28432 
-1.55276 2.92832 26.3467 3.97459 3.97533 -2.1408 
-1.50852 2.97255 23.5502 2.98264 2.98309 3.38 
2.09927 2.80616 31.9399 3.14049 1.29644 2.32687 
1.79725 2.67695 29.4377 4.85742 2.00512 -2.27967 
-0.678365 1.62009 26.3467 5.19894 2.14463 -2.13696 
-0.618845 1.64328 23.5502 3.89996 1.61167 3.38316 
5.06983 1.62939e-006 21.6858 1.48327 1.86265e-008 6.09157 
12.789 1.62939e-006 20.4101 1.08663 -9.68575e-008 6.18327 
19.7233 1.62939e-006 19.1345 2.31774 -4.47035e-008 5.64694 
22.7324 1.62939e-006 17.2701 1.4724 -1.11759e-008 2.37651 
4.32963 -3.74873 21.6858 1.36665 -0.565623 6.09268 
11.4506 -6.77852 20.4101 1.00189 -0.414101 6.18362 
17.8474 -9.5002 19.1345 2.13928 -0.883426 5.64769 
20.6234 -10.6813 17.2701 1.35524 -0.562297 2.3741 
2.30007 -6.78113 21.6858 1.04472 -1.04472 6.09309 
7.78071 -12.2618 20.4101 0.765342 -0.765341 6.18403 
12.704 -17.1851 19.1345 1.63407 -1.63407 5.65056 
14.8405 -19.3216 17.2701 1.03753 -1.03753 2.37796 
-0.732345 -8.8107 21.6858 0.565623 -1.36665 6.09268 
2.29745 -15.9317 20.4101 0.414101 -1.00189 6.18362 
5.01913 -22.3285 19.1345 0.883426 -2.13928 5.64769 
6.20023 -25.1045 17.2701 0.562297 -1.35524 2.3741 
-4.48107 -9.55089 21.6858 4.47035e-008 -1.48327 6.09157 
-4.48107 -17.2701 20.4101 -5.58794e-008 -1.08663 6.18327 
-4.48107 -24.2043 19.1345 -2.98023e-008 -2.31774 5.64694 
-4.48107 -27.2135 17.2701 -1.49012e-008 -1.4724 2.37651 
-8.2298 -8.8107 21.6858 -0.565623 -1.36665 6.09268 
-11.2596 -15.9317 20.4101 -0.414101 -1.00189 6.18362 
-13.9813 -22.3285 19.1345 -0.883426 -2.13928 5.64769 
-15.1624 -25.1045 17.2701 -0.562297 -1.35524 2.3741 
-11.2622 -6.78113 21.6858 -1.04472 -1.04472 6.09309 
-16.7429 -12.2618 20.4101 -0.765341 -0.765341 6.18403 
-21.6661 -17.1851 19.1345 -1.63407 -1.63407 5.65056 
-23.8027 -19.3216 17.2701 -1.03753 -1.03753 2.37796 
-13.2918 -3.74873 21.6858 -1.36665 -0.565624 6.09268 
-20.4128 -6.77852 20.4101 -1.00189 -0.414101 6.18362 
-26.8096 -9.5002 19.1345 -2.13928 -0.883426 5.64769 
-29.5855 -10.6813 17.2701 -1.35524 -0.562297 2.3741 
-14.032 1.62939e-006 21.6858 -1.48327 1.67638e-008 6.09157 
-21.7512 1.62939e-006 20.4101 -1.08663 2.6077e-008 6.18327 
-28.6854 1.62939e-006 19.1345 -2.31774 1.49012e-008 5.64694 
-31.6946 1.62939e-006 17.2701 -1.4724 1.49012e-008 2.37651 
-13.2918 3.74873 21.6858 -1.36665 0.565623 6.09268 
-20.4128 6.77852 20.4101 -1.00189 0.414101 6.18362 
-26.8096 9.5002 19.1345 -2.13928 0.883426 5.64769 
-29.5855 10.6813 17.2701 -1.35524 0.562297 2.3741 
-11.2622 6.78114 21.6858 -1.04472 1.04472 6.09309 
-16.7429 12.2618 20.4101 -0.765341 0.765341 6.18403 
-21.6661 17.1851 19.1345 -1.63407 1.63407 5.65056 
-23.8027 19.3216 17.2701 -1.03753 1.03753 2.37796 
-8.2298 8.8107 21.6858 -0.565623 1.36665 6.09268 
-11.2596 15.9317 20.4101 -0.414101 1.00189 6.18362 
-13.9813 22.3285 19.1345 -0.883426 2.13928 5.64769 
-15.1624 25.1045 17.2701 -0.562297 1.35524 2.3741 
-4.48107 9.5509 21.6858 4.65661e-008 1.48327 6.09157 
-4.48107 17.2701 20.4101 7.07805e-008 1.08663 6.18327 
-4.48107 24.2043 19.1345 2.98023e-008 2.31774 5.64694 
-4.48107 27.2135 17.2701 1.49012e-008 1.4724 2.37651 
-0.732345 8.8107 21.6858 0.565623 1.36665 6.09268 
2.29745 15.9317 20.4101 0.414101 1.00189 6.18362 
5.01913 22.3285 19.1345 0.883426 2.13928 5.64769 
6.20023 25.1045 17.2701 0.562297 1.35524 2.3741 
2.30007 6.78114 21.6858 1.04472 1.04472 6.09309 
7.78071 12.2618 20.4101 0.765342 0.765341 6.18403 
12.704 17.1851 19.1345 1.63407 1.63407 5.65056 
14.8405 19.3216 17.2701 1.03753 1.03753 2.37796 
4.32963 3.74873 21.6858 1.36665 0.565623 6.09268 
11.4506 6.77852 20.4101 1.00189 0.414101 6.18362 
17.8474 9.5002 19.1345 2.13928 0.883426 5.64769 
20.6234 10.6813 17.2701 1.35524 0.562297 2.3741 
3 0 5 6 
3 6 1 0 
3 1 6 7 
3 7 2 1 
3 2 7 8 
3 8 3 2 
3 3 8 9 
3 9 4 3 
3 5 10 11 
3 11 6 5 
3 6 11 12 
3 12 7 6 
3 7 12 13 
3 13 8 7 
3 8 13 14 
3 14 9 8 
3 10 15 16 
3 16 11 10 
3 11 16 17 
3 17 12 11 
3 12 17 18 
3 18 13 12 
3 13 18 19 
3 19 14 13 
3 15 20 21 
3 21 16 15 
3 16 21 22 
3 22 17 16 
3 17 22 23 
3 23 18 17 
3 18 23 24 
3 24 19 18 
3 20 25 26 
3 26 21 20 
3 21 26 27 
3 27 22 21 
3 22 27 28 
3 28 23 22 
3 23 28 29 
3 29 24 23 
3 25 30 31 
3 31 26 25 
3 26 31 32 
3 32 27 26 
3 27 32 33 
3 33 28 27 
3 28 33 34 
3 34 29 28 
3 30 35 36 
3 36 31 30 
3 31 36 37 
3 37 32 31 
3 32 37 38 
3 38 33 32 
3 33 38 39 
3 39 34 33 
3 35 40 41 
3 41 36 35 
3 36 41 42 
3 42 37 36 
3 37 42 43 
3 43 38 37 
3 38 43 44 
3 44 39 38 
3 40 45 46 
3 46 41 40 
3 41 46 47 
3 47 42 41 
3 42 47 48 
3 48 43 42 
3 43 48 49 
3 49 44 43 
3 45 50 51 
3 51 46 45 
3 46 51 52 
3 52 47 46 
3 47 52 53 
3 53 48 47 
3 48 53 54 
3 54 49 48 
3 50 55 56 
3 56 51 50 
3 51 56 57 
3 57 52 51 
3 52 57 58 
3 58 53 52 
3 53 58 59 
3 59 54 53 
3 55 60 61 
3 61 56 55 
3 56 61 62 
3 62 57 56 
3 57 62 63 
3 63 58 57 
3 58 63 64 
3 64 59 58 
3 60 65 66 
3 66 61 60 
3 61 66 67 
3 67 62 61 
3 62 67 68 
3 68 63 62 
3 63 68 69 
3 69 64 63 
3 65 70 71 
3 71 66 65 
3 66 71 72 
3 72 67 66 
3 67 72 73 
3 73 68 67 
3 68 73 74 
3 74 69 68 
3 70 75 76 
3 76 71 70 
3 71 76 77 
3 77 72 71 
3 72 77 78 
3 78 73 72 
3 73 78 79 
3 79 74 73 
3 75 0 1 
3 1 76 75 
3 76 1 2 
3 2 77 76 
3 77 2 3 
3 3 78 77 
3 78 3 4 
3 4 79 78 
3 4 9 84 
3 84 80 4 
3 80 84 85 
3 85 81 80 
3 81 85 86 
3 86 82 81 
3 82 86 87 
3 87 83 82 
3 9 14 88 
3 88 84 9 
3 84 88 89 
3 89 85 84 
3 85 89 90 
3 90 86 85 
3 86 90 91 
3 91 87 86 
3 14 19 92 
3 92 88 14 
3 88 92 93 
3 93 89 88 
3 89 93 94 
3 94 90 89 
3 90 94 95 
3 95 91 90 
3 19 24 96 
3 96 92 19 
3 92 96 97 
3 97 93 92 
3 93 97 98 
3 98 94 93 
3 94 98 99 
3 99 95 94 
3 24 29 100 
3 100 96 24 
3 96 100 101 
3 101 97 96 
3 97 101 102 
3 102 98 97 
3 98 102 103 
3 103 99 98 
3 29 34 104 
3 104 100 29 
3 100 104 105 
3 105 101 100 
3 101 105 106 
3 106 102 101 
3 102 106 107 
3 107 103 102 
3 34 39 108 
3 108 104 34 
3 104 108 109 
3 109 105 104 
3 105 109 110 
3 110 106 105 
3 106 110 111 
3 111 107 106 
3 39 44 112 
3 112 108 39 
3 108 112 113 
3 113 109 108 
3 109 113 114 
3 114 110 109 
3 110 114 115 
3 115 111 110 
3 44 49 116 
3 116 112 44 
3 112 116 117 
3 117 113 112 
3 113 117 118 
3 118 114 113 
3 114 118 119 
3 119 115 114 
3 49 54 120 
3 120 116 49 
3 116 120 121 
3 121 117 116 
3 117 121 122 
3 122 118 117 
3 118 122 123 
3 123 119 118 
3 54 59 124 
3 124 120 54 
3 120 124 125 
3 125 121 120 
3 121 125 126 
3 126 122 121 
3 122 126 127 
3 127 123 122 
3 59 64 128 
3 128 124 59 
3 124 128 129 
3 129 125 124 
3 125 129 130 
3 130 126 125 
3 126 130 131 
3 131 127 126 
3 64 69 132 
3 132 128 64 
3 128 132 133 
3 133 129 128 
3 129 133 134 
3 134 130 129 
3 130 134 135 
3 135 131 130 
3 69 74 136 
3 136 132 69 
3 132 136 137 
3 137 133 132 
3 133 137 138 
3 138 134 133 
3 134 138 139 
3 139 135 134 
3 74 79 140 
3 140 136 74 
3 136 140 141 
3 141 137 136 
3 137 141 142 
3 142 138 137 
3 138 142 143 
3 143 139 138 
3 79 4 80 
3 80 140 79 
3 140 80 81 
3 81 141 140 
3 141 81 82 
3 82 142 141 
3 142 82 83 
3 83 143 142 
3 83 87 148 
3 148 144 83 
3 144 148 149 
3 149 145 144 
3 145 149 150 
3 150 146 145 
3 146 150 151 
3 151 147 146 
3 87 91 152 
3 152 148 87 
3 148 152 153 
3 153 149 148 
3 149 153 154 
3 154 150 149 
3 150 154 155 
3 155 151 150 
3 91 95 156 
3 156 152 91 
3 152 156 157 
3 157 153 152 
3 153 157 158 
3 158 154 153 
3 154 158 159 
3 159 155 154 
3 95 99 160 
3 160 156 95 
3 156 160 161 
3 161 157 156 
3 157 161 162 
3 162 158 157 
3 158 162 163 
3 163 159 158 
3 99 103 164 
3 164 160 99 
3 160 164 165 
3 165 161 160 
3 161 165 166 
3 166 162 161 
3 162 166 167 
3 167 163 162 
3 103 107 168 
3 168 164 103 
3 164 168 169 
3 169 165 164 
3 165 169 170 
3 170 166 165 
3 166 170 171 
3 171 167 166 
3 107 111 172 
3 172 168 107 
3 168 172 173 
3 173 169 168 
3 169 173 174 
3 174 170 169 
3 170 174 175 
3 175 171 170 
3 111 115 176 
3 176 172 111 
3 172 176 177 
3 177 173 172 
3 173 177 178 
3 178 174 173 
3 174 178 179 
3 179 175 174 
3 115 119 180 
3 180 176 115 
3 176 180 181 
3 181 177 176 
3 177 181 182 
3 182 178 177 
3 178 182 183 
3 183 179 178 
3 119 123 184 
3 184 180 119 
3 180 184 185 
3 185 181 180 
3 181 185 186 
3 186 182 181 
3 182 186 187 
3 187 183 182 
3 123 127 188 
3 188 184 123 
3 184 188 189 
3 189 185 184 
3 185 189 190 
3 190 186 185 
3 186 190 191 
3 191 187 186 
3 127 131 192 
3 192 188 127 
3 188 192 193 
3 193 189 188 
3 189 193 194 
3 194 190 189 
3 190 194 195 
3 195 191 190 
3 131 135 196 
3 196 192 131 
3 192 196 197 
3 197 193 192 
3 193 197 198 
3 198 194 193 
3 194 198 199 
3 199 195 194 
3 135 139 200 
3 200 196 135 
3 196 200 201 
3 201 197 196 
3 197 201 202 
3 202 198 197 
3 198 202 203 
3 203 199 198 
3 139 143 204 
3 204 200 139 
3 200 204 205 
3 205 201 200 
3 201 205 206 
3 206 202 201 
3 202 206 207 
3 207 203 202 
3 143 83 144 
3 144 204 143 
3 204 144 145 
3 145 205 204 
3 205 145 146 
3 146 206 205 
3 206 146 147 
3 147 207 206 
3 147 151 212 
3 212 208 147 
3 208 212 213 
3 213 209 208 
3 209 213 214 
3 214 210 209 
3 210 214 211 
3 151 155 215 
3 215 212 151 
3 212 215 216 
3 216 213 212 
3 213 216 217 
3 217 214 213 
3 214 217 211 
3 155 159 218 
3 218 215 155 
3 215 218 219 
3 219 216 215 
3 216 219 220 
3 220 217 216 
3 217 220 211 
3 159 163 221 
3 221 218 159 
3 218 221 222 
3 222 219 218 
3 219 222 223 
3 223 220 219 
3 220 223 211 
3 163 167 224 
3 224 221 163 
3 221 224 225 
3 225 222 221 
3 222 225 226 
3 226 223 222 
3 223 226 211 
3 167 171 227 
3 227 224 167 
3 224 227 228 
3 228 225 224 
3 225 228 229 
3 229 226 225 
3 226 229 211 
3 171 175 230 
3 230 227 171 
3 227 230 231 
3 231 228 227 
3 228 231 232 
3 232 229 228 
3 229 232 211 
3 175 179 233 
3 233 230 175 
3 230 233 234 
3 234 231 230 
3 231 234 235 
3 235 232 231 
3 232 235 211 
3 179 183 236 
3 236 233 179 
3 233 236 237 
3 237 234 233 
3 234 237 238 
3 238 235 234 
3 235 238 211 
3 183 187 239 
3 239 236 183 
3 236 239 240 
3 240 237 236 
3 237 240 241 
3 241 238 237 
3 238 241 211 
3 187 191 242 
3 242 239 187 
3 239 242 243 
3 243 240 239 
3 240 243 244 
3 244 241 240 
3 241 244 211 
3 191 195 245 
3 245 242 191 
3 242 245 246 
3 246 243 242 
3 243 246 247 
3 247 244 243 
3 244 247 211 
3 195 199 248 
3 248 245 195 
3 245 248 249 
3 249 246 245 
3 246 249 250 
3 250 247 246 
3 247 250 211 
3 199 203 251 
3 251 248 199 
3 248 251 252 
3 252 249 248 
3 249 252 253 
3 253 250 249 
3 250 253 211 
3 203 207 254 
3 254 251 203 
3 251 254 255 
3 255 252 251 
3 252 255 256 
3 256 253 252 
3 253 256 211 
3 207 147 208 
3 208 254 207 
3 254 208 209 
3 209 255 254 
3 255 209 210 
3 210 256 255 
3 256 210 211 
3 257 262 263 
3 263 258 257 
3 258 263 264 
3 264 259 258 
3 259 264 265 
3 265 260 259 
3 260 265 266 
3 266 261 260 
3 262 267 268 
3 268 263 262 
3 263 268 269 
3 269 264 263 
3 264 269 270 
3 270 265 264 
3 265 270 271 
3 271 266 265 
3 267 272 273 
3 273 268 267 
3 268 273 274 
3 274 269 268 
3 269 274 275 
3 275 270 269 
3 270 275 276 
3 276 271 270 
3 272 277 278 
3 278 273 272 
3 273 278 279 
3 279 274 273 
3 274 279 280 
3 280 275 274 
3 275 280 281 
3 281 276 275 
3 277 282 283 
3 283 278 277 
3 278 283 284 
3 284 279 278 
3 279 284 285 
3 285 280 279 
3 280 285 286 
3 286 281 280 
3 282 287 288 
3 288 283 282 
3 283 288 289 
3 289 284 283 
3 284 289 290 
3 290 285 284 
3 285 290 291 
3 291 286 285 
3 287 292 293 
3 293 288 287 
3 288 293 294 
3 294 289 288 
3 289 294 295 
3 295 290 289 
3 290 295 296 
3 296 291 290 
3 292 257 258 
3 258 293 292 
3 293 258 259 
3 259 294 293 
3 294 259 260 
3 260 295 294 
3 295 260 261 
3 261 296 295 
3 261 266 301 
3 301 297 261 
3 297 301 302 
3 302 298 297 
3 298 302 303 
3 303 299 298 
3 299 303 304 
3 304 300 299 
3 266 271 305 
3 305 301 266 
3 301 305 306 
3 306 302 301 
3 302 306 307 
3 307 303 302 
3 303 307 308 
3 308 304 303 
3 271 276 309 
3 309 305 271 
3 305 309 310 
3 310 306 305 
3 306 310 311 
3 311 307 306 
3 307 311 312 
3 312 308 307 
3 276 281 313 
3 313 309 276 
3 309 313 314 
3 314 310 309 
3 310 314 315 
3 315 311 310 
3 311 315 316 
3 316 312 311 
3 281 286 317 
3 317 313 281 
3 313 317 318 
3 318 314 313 
3 314 318 319 
3 319 315 314 
3 315 319 320 
3 320 316 315 
3 286 291 321 
3 321 317 286 
3 317 321 322 
3 322 318 317 
3 318 322 323 
3 323 319 318 
3 319 323 324 
3 324 320 319 
3 291 296 325 
3 325 321 291 
3 321 325 326 
3 326 322 321 
3 322 326 327 
3 327 323 322 
3 323 327 328 
3 328 324 323 
3 296 261 297 
3 297 325 296 
3 325 297 298 
3 298 326 325 
3 326 298 299 
3 299 327 326 
3 327 299 300 
3 300 328 327 
3 329 334 335 
3 335 330 329 
3 330 335 336 
3 336 331 330 
3 331 336 337 
3 337 332 331 
3 332 337 338 
3 338 333 332 
3 334 339 340 
3 340 335 334 
3 335 340 341 
3 341 336 335 
3 336 341 342 
3 342 337 336 
3 337 342 343 
3 343 338 337 
3 339 344 345 
3 345 340 339 
3 340 345 346 
3 346 341 340 
3 341 346 347 
3 347 342 341 
3 342 347 348 
3 348 343 342 
3 344 349 350 
3 350 345 344 
3 345 350 351 
3 351 346 345 
3 346 351 352 
3 352 347 346 
3 347 352 353 
3 353 348 347 
3 349 354 355 
3 355 350 349 
3 350 355 356 
3 356 351 350 
3 351 356 357 
3 357 352 351 
3 352 357 358 
3 358 353 352 
3 354 359 360 
3 360 355 354 
3 355 360 361 
3 361 356 355 
3 356 361 362 
3 362 357 356 
3 357 362 363 
3 363 358 357 
3 359 364 365 
3 365 360 359 
3 360 365 366 
3 366 361 360 
3 361 366 367 
3 367 362 361 
3 362 367 368 
3 368 363 362 
3 364 329 330 
3 330 365 364 
3 365 330 331 
3 331 366 365 
3 366 331 332 
3 332 367 366 
3 367 332 333 
3 333 368 367 
3 333 338 373 
3 373 369 333 
3 369 373 374 
3 374 370 369 
3 370 374 375 
3 375 371 370 
3 371 375 376 
3 376 372 371 
3 338 343 377 
3 377 373 338 
3 373 377 378 
3 378 374 373 
3 374 378 379 
3 379 375 374 
3 375 379 380 
3 380 376 375 
3 343 348 381 
3 381 377 343 
3 377 381 382 
3 382 378 377 
3 378 382 383 
3 383 379 378 
3 379 383 384 
3 384 380 379 
3 348 353 385 
3 385 381 348 
3 381 385 386 
3 386 382 381 
3 382 386 387 
3 387 383 382 
3 383 387 388 
3 388 384 383 
3 353 358 389 
3 389 385 353 
3 385 389 390 
3 390 386 385 
3 386 390 391 
3 391 387 386 
3 387 391 392 
3 392 388 387 
3 358 363 393 
3 393 389 358 
3 389 393 394 
3 394 390 389 
3 390 394 395 
3 395 391 390 
3 391 395 396 
3 396 392 391 
3 363 368 397 
3 397 393 363 
3 393 397 398 
3 398 394 393 
3 394 398 399 
3 399 395 394 
3 395 399 400 
3 400 396 395 
3 368 333 369 
3 369 397 368 
3 397 369 370 
3 370 398 397 
3 398 370 371 
3 371 399 398 
3 399 371 372 
3 372 400 399 
3 406 402 401 
3 402 406 407 
3 407 403 402 
3 403 407 408 
3 408 404 403 
3 404 408 409 
3 409 405 404 
3 410 406 401 
3 406 410 411 
3 411 407 406 
3 407 411 412 
3 412 408 407 
3 408 412 413 
3 413 409 408 
3 414 410 401 
3 410 414 415 
3 415 411 410 
3 411 415 416 
3 416 412 411 
3 412 416 417 
3 417 413 412 
3 418 414 401 
3 414 418 419 
3 419 415 414 
3 415 419 420 
3 420 416 415 
3 416 420 421 
3 421 417 416 
3 422 418 401 
3 418 422 423 
3 423 419 418 
3 419 423 424 
3 424 420 419 
3 420 424 425 
3 425 421 420 
3 426 422 401 
3 422 426 427 
3 427 423 422 
3 423 427 428 
3 428 424 423 
3 424 428 429 
3 429 425 424 
3 430 426 401 
3 426 430 431 
3 431 427 426 
3 427 431 432 
3 432 428 427 
3 428 432 433 
3 433 429 428 
3 434 430 401 
3 430 434 435 
3 435 431 430 
3 431 435 436 
3 436 432 431 
3 432 436 437 
3 437 433 432 
3 438 434 401 
3 434 438 439 
3 439 435 434 
3 435 439 440 
3 440 436 435 
3 436 440 441 
3 441 437 436 
3 442 438 401 
3 438 442 443 
3 443 439 438 
3 439 443 444 
3 444 440 439 
3 440 444 445 
3 445 441 440 
3 446 442 401 
3 442 446 447 
3 447 443 442 
3 443 447 448 
3 448 444 443 
3 444 448 449 
3 449 445 444 
3 450 446 401 
3 446 450 451 
3 451 447 446 
3 447 451 452 
3 452 448 447 
3 448 452 453 
3 453 449 448 
3 454 450 401 
3 450 454 455 
3 455 451 450 
3 451 455 456 
3 456 452 451 
3 452 456 457 
3 457 453 452 
3 458 454 401 
3 454 458 459 
3 459 455 454 
3 455 459 460 
3 460 456 455 
3 456 460 461 
3 461 457 456 
3 462 458 401 
3 458 462 463 
3 463 459 458 
3 459 463 464 
3 464 460 459 
3 460 464 465 
3 465 461 460 
3 402 462 401 
3 462 402 403 
3 403 463 462 
3 463 403 404 
3 404 464 463 
3 464 404 405 
3 405 465 464 
3 405 409 470 
3 470 466 405 
3 466 470 471 
3 471 467 466 
3 467 471 472 
3 472 468 467 
3 468 472 473 
3 473 469 468 
3 409 413 474 
3 474 470 409 
3 470 474 475 
3 475 471 470 
3 471 475 476 
3 476 472 471 
3 472 476 477 
3 477 473 472 
3 413 417 478 
3 478 474 413 
3 474 478 479 
3 479 475 474 
3 475 479 480 
3 480 476 475 
3 476 480 481 
3 481 477 476 
3 417 421 482 
3 482 478 417 
3 478 482 483 
3 483 479 478 
3 479 483 484 
3 484 480 479 
3 480 484 485 
3 485 481 480 
3 421 425 486 
3 486 482 421 
3 482 486 487 
3 487 483 482 
3 483 487 488 
3 488 484 483 
3 484 488 489 
3 489 485 484 
3 425 429 490 
3 490 486 425 
3 486 490 491 
3 491 487 486 
3 487 491 492 
3 492 488 487 
3 488 492 493 
3 493 489 488 
3 429 433 494 
3 494 490 429 
3 490 494 495 
3 495 491 490 
3 491 495 496 
3 496 492 491 
3 492 496 497 
3 497 493 492 
3 433 437 498 
3 498 494 433 
3 494 498 499 
3 499 495 494 
3 495 499 500 
3 500 496 495 
3 496 500 501 
3 501 497 496 
3 437 441 502 
3 502 498 437 
3 498 502 503 
3 503 499 498 
3 499 503 504 
3 504 500 499 
3 500 504 505 
3 505 501 500 
3 441 445 506 
3 506 502 441 
3 502 506 507 
3 507 503 502 
3 503 507 508 
3 508 504 503 
3 504 508 509 
3 509 505 504 
3 445 449 510 
3 510 506 445 
3 506 510 511 
3 511 507 506 
3 507 511 512 
3 512 508 507 
3 508 512 513 
3 513 509 508 
3 449 453 514 
3 514 510 449 
3 510 514 515 
3 515 511 510 
3 511 515 516 
3 516 512 511 
3 512 516 517 
3 517 513 512 
3 453 457 518 
3 518 514 453 
3 514 518 519 
3 519 515 514 
3 515 519 520 
3 520 516 515 
3 516 520 521 
3 521 517 516 
3 457 461 522 
3 522 518 457 
3 518 522 523 
3 523 519 518 
3 519 523 524 
3 524 520 519 
3 520 524 525 
3 525 521 520 
3 461 465 526 
3 526 522 461 
3 522 526 527 
3 527 523 522 
3 523 527 528 
3 528 524 523 
3 524 528 529 
3 529 525 524 
3 465 405 466 
3 466 526 465 
3 526 466 467 
3 467 527 526 
3 527 467 468 
3 468 528 527 
3 528 468 469 
3 469 529 528 
